<?xml version="1.0" encoding="UTF-8" standalone="no"?>
<!-- Created with Inkscape (http://www.inkscape.org/) -->

<svg
   xmlns:dc="http://purl.org/dc/elements/1.1/"
   xmlns:cc="http://creativecommons.org/ns#"
   xmlns:rdf="http://www.w3.org/1999/02/22-rdf-syntax-ns#"
   xmlns:svg="http://www.w3.org/2000/svg"
   xmlns="http://www.w3.org/2000/svg"
   xmlns:sodipodi="http://sodipodi.sourceforge.net/DTD/sodipodi-0.dtd"
   xmlns:inkscape="http://www.inkscape.org/namespaces/inkscape"
   width="500"
   height="500"
   viewBox="0 0 132.29166 132.29167"
   version="1.1"
   id="svg8"
   sodipodi:docname="punch_001.svg"
   inkscape:version="0.92.1 r15371">
  <defs
     id="defs2" />
  <sodipodi:namedview
     id="base"
     pagecolor="#ffffff"
     bordercolor="#666666"
     borderopacity="1.0"
     inkscape:pageopacity="0.0"
     inkscape:pageshadow="2"
     inkscape:zoom="0.7"
     inkscape:cx="326.89652"
     inkscape:cy="265.93889"
     inkscape:document-units="px"
     inkscape:current-layer="layer1"
     showgrid="false"
     units="px"
     showguides="true"
     inkscape:guide-bbox="true"
     inkscape:window-width="1858"
     inkscape:window-height="1057"
     inkscape:window-x="1358"
     inkscape:window-y="-8"
     inkscape:window-maximized="1">
    <sodipodi:guide
       position="0,0"
       orientation="1,0"
       id="guide4485"
       inkscape:locked="false"
       inkscape:label=""
       inkscape:color="rgb(0,0,255)" />
    <sodipodi:guide
       position="0,0"
       orientation="0,1"
       id="guide4487"
       inkscape:locked="false" />
    <sodipodi:guide
       position="132.29166,132.29166"
       orientation="1,0"
       id="guide4489"
       inkscape:locked="false"
       inkscape:label=""
       inkscape:color="rgb(0,0,255)" />
    <sodipodi:guide
       position="132.29166,132.29166"
       orientation="0,1"
       id="guide4491"
       inkscape:locked="false" />
    <sodipodi:guide
       position="36.682742,36.682742"
       orientation="-0.70710678,0.70710678"
       id="guide4493"
       inkscape:locked="false"
       inkscape:label=""
       inkscape:color="rgb(0,0,255)" />
    <sodipodi:guide
       position="0,132.29166"
       orientation="0.70710678,0.70710678"
       id="guide4497"
       inkscape:locked="false"
       inkscape:label=""
       inkscape:color="rgb(0,0,255)" />
    <sodipodi:guide
       position="66.145828,66.145833"
       orientation="1,0"
       id="guide4499"
       inkscape:locked="false" />
    <sodipodi:guide
       position="66.145828,66.145833"
       orientation="0,1"
       id="guide4501"
       inkscape:locked="false" />
  </sodipodi:namedview>
  <metadata
     id="metadata5">
    <rdf:RDF>
      <cc:Work
         rdf:about="">
        <dc:format>image/svg+xml</dc:format>
        <dc:type
           rdf:resource="http://purl.org/dc/dcmitype/StillImage" />
        <dc:title />
      </cc:Work>
    </rdf:RDF>
  </metadata>
  <g
     inkscape:label="main"
     inkscape:groupmode="layer"
     id="layer1"
     transform="translate(0,-164.70831)"
     style="display:inline">
    <path
       style="display:inline;fill:#000000;fill-opacity:1;stroke:#ffffff;stroke-width:0.3326596px;stroke-linecap:butt;stroke-linejoin:miter;stroke-opacity:1"
       d="m 53.72369,243.05722 c 0.467119,0.28643 1.193956,0.1852 1.193956,0.1852 1.129717,0.1622 1.90385,1.0685 3.403849,0.45683 0.746314,-0.3238 0.677018,-2.29003 -0.441707,-2.89383 -1.25006,-0.83582 -0.953466,-0.59216 -1.877051,-1.50309 -2.483688,-2.31108 -3.75809,-4.85919 -3.75809,-4.85919 -0.586767,-1.09467 -0.683202,-3.41202 -0.763657,-4.15815 -0.845756,2.64268 -0.297887,3.77531 -0.145285,4.85045 -0.263537,0.69253 -0.562309,1.27691 -1.032116,2.82249 -0.0058,0.009 -0.26049,2.36019 0.814364,2.66081 0.956976,0.21972 1.157138,1.51664 2.605728,2.43817 z"
       id="path4682-2"
       inkscape:connector-curvature="0"
       sodipodi:nodetypes="cccccccccccc" />
    <path
       style="display:inline;fill:#000000;fill-opacity:1;stroke:#ffffff;stroke-width:0.3326596px;stroke-linecap:butt;stroke-linejoin:miter;stroke-opacity:1"
       d="m 78.625185,241.30333 c 1.210932,-0.83297 1.643891,-1.2174 2.80062,-2.55483 0.584163,-0.46743 1.116094,-0.68035 1.175515,-2.60195 0.666067,-1.02406 0.635172,-2.35858 0.882089,-4.01139 -0.725697,-4.86468 -2.089505,-6.2243 -3.958934,-8.34362 -0.289013,-0.32789 -0.619795,-0.5992 -1.066144,-0.94919 -1.32525,-0.66779 -1.836322,-0.26801 -2.739243,-0.22976 -0.377893,0.0173 -0.636596,-0.24358 -0.636596,-0.24358 -0.611163,-0.7281 -1.103588,-1.31265 -2.688296,-1.51218 -1.920667,-0.0477 -2.295514,0.44198 -3.360374,-0.33609 -1.279669,-1.14646 -2.770991,-1.44195 -4.956541,-1.17617 -0.685268,0.1167 -1.288144,0.72808 -1.932208,1.09214 -1.867974,-0.0728 -3.249239,-1.1184 -5.628626,-0.16795 -2.644442,2.94832 -3.168036,5.71998 -4.620512,8.56894 -0.642628,1.24174 -0.309967,3.56238 0.297894,5.51669 2.043755,2.67334 2.047599,4.28556 7.762745,7.51538 0.831375,0.20591 1.786635,0.67476 2.430758,-0.37596 0.211859,-0.27606 0.845045,-1.46767 -0.45441,-4.77538 -1.281887,-2.90009 -1.051069,-3.43723 -0.773737,-5.27552 0.286745,-1.90079 0.369586,-2.94734 0.106383,-5.09576 -0.452707,-2.27872 -0.17942,-1.30924 -1.201425,-2.55006 1.367234,1.1337 1.180142,1.20991 1.676776,1.97874 1.081092,4.80961 -0.153884,6.92809 0.192016,11.09113 l 1.304249,4.32014 0.711088,1.19624 c 0.84077,0.78382 3.521904,0.57127 3.888418,0.0846 0.623219,-0.67993 1.061265,-2.13991 1.81956,-4.52719 0.530439,-1.18379 0.769207,-1.52063 1.25728,-2.39305 -0.566557,-2.53137 -0.458461,-4.13718 0.24151,-8.01239 -1.147283,4.08685 -0.868481,4.35311 -0.24151,8.01239 l -1.25728,2.39305 c -0.28318,0.58106 -0.82735,1.76085 -0.802135,4.65167 0.968473,1.58327 4.011966,0.37476 4.558381,-0.34099 1.17026,-1.42977 2.244131,-2.67818 3.6247,-5.05436 0.328049,-3.38555 -0.303766,-3.23146 0.439555,-9.15761 -0.09692,2.1697 -0.167889,6.32386 0.299122,9.2338 -0.283266,1.05691 -3.918735,4.13584 -4.147268,4.8405 0.132142,0.47577 0.346088,0.85759 1.013698,0.91663 1.661553,-0.12912 3.190905,-1.30319 3.982882,-1.72729 z"
       id="path4684-9"
       inkscape:connector-curvature="0"
       sodipodi:nodetypes="ccccscscccccccccccsccccccccccccccccccccc" />
    <path
       style="display:inline;fill:#ffffff;fill-opacity:0.998748;stroke:none;stroke-width:0.3326596px;stroke-linecap:butt;stroke-linejoin:miter;stroke-opacity:1"
       d="m 59.956584,234.6659 -1.108879,0.19958 c -2.474003,0.058 -3.91103,-0.47268 -5.376593,-0.98715 0.514029,0.37348 0.56777,0.68493 1.722185,1.14467 2.608466,0.55351 3.617026,0.61945 4.763282,0.26257 0.06775,-0.0509 0.845417,-0.0535 0.844336,0.0837 0.302039,-0.19844 1.745695,3.81248 1.701189,3.86442 -0.238144,-1.616 -1.221598,-4.15229 -1.596176,-5.94365 -0.238632,0.71653 0.05953,1.00503 -0.949344,1.37564 z"
       id="path4536-0"
       inkscape:connector-curvature="0"
       sodipodi:nodetypes="ccccccccc" />
    <path
       style="display:inline;fill:#ffffff;fill-opacity:0.998748;stroke:none;stroke-width:0.3326596px;stroke-linecap:butt;stroke-linejoin:miter;stroke-opacity:1"
       d="m 71.281069,225.71891 c -0.474165,1.44686 -1.518049,6.72906 -1.19713,9.41959 -0.437026,2.37371 -1.289494,3.04411 -1.229831,7.45425 l 0.984931,0.63982 c -1.090382,-2.0992 -0.182815,-5.29153 1.248975,-7.66601 -0.683837,-4.29499 -0.09659,-5.99636 0.09326,-7.22237 0.136917,-0.75298 0.398065,-0.94942 0.939853,-0.80853 -0.238058,-0.15558 -0.523978,-0.20506 -0.661228,-0.33241 -0.193857,-0.18003 -0.181491,-0.24158 -0.178844,-1.48434 z"
       id="path4538-6"
       inkscape:connector-curvature="0"
       sodipodi:nodetypes="cccccccsc" />
    <path
       style="display:inline;fill:#ffffff;fill-opacity:0.998748;stroke:none;stroke-width:0.3326596px;stroke-linecap:butt;stroke-linejoin:miter;stroke-opacity:1"
       d="m 77.747933,226.75156 c -1.001734,1.34767 -0.473832,6.96379 -0.710748,10.44575 l -3.408579,4.91668 c 0.07643,0.56708 0.463126,0.82377 1.013699,0.91663 -1.907417,-0.99132 3.281327,-3.71008 3.301583,-5.75713 -0.364699,-1.47932 -0.896297,-8.36143 0.101032,-8.62102 0.155982,-0.29212 0,0 0.534635,-0.26745 -1.034394,-0.40802 -0.831278,-0.78909 -0.831649,-1.63362 z"
       id="path4540-7"
       inkscape:connector-curvature="0"
       sodipodi:nodetypes="ccccccccc" />
    <path
       style="display:inline;fill:#000000;fill-opacity:1;stroke:#ffffff;stroke-width:0.3326596px;stroke-linecap:butt;stroke-linejoin:miter;stroke-opacity:1"
       d="m 58.17448,243.71129 c 0.723011,-0.47065 -0.103957,-1.03957 -0.103957,-1.03957 -0.819805,-0.59103 -1.622908,-0.57976 -2.390993,-0.698 -0.960824,0.42112 -0.973893,0.79235 -0.800822,1.27995 0.368188,0.002 2.247012,0.93032 3.295773,0.45771 z"
       id="path4542-3"
       inkscape:connector-curvature="0"
       sodipodi:nodetypes="cccccc" />
    <path
       style="display:inline;fill:#ffffff;fill-opacity:0.998748;stroke:none;stroke-width:0.8699978px;stroke-linecap:butt;stroke-linejoin:miter;stroke-opacity:1"
       d="m 58.820261,222.93165 c 4.097991,3.15918 1.973564,7.45103 2.056628,11.28737 l 1.153134,2.842 c -0.185718,-2.3986 0.0256,-3.74805 0.233371,-5.18983 0.331909,-2.29898 1.658356,-6.6169 -3.443145,-8.93954 z"
       id="path4574-1"
       inkscape:connector-curvature="0"
       sodipodi:nodetypes="cccscc" />
    <path
       style="display:inline;fill:#ffffff;fill-opacity:0.998748;stroke:none;stroke-width:0.8699978px;stroke-linecap:butt;stroke-linejoin:miter;stroke-opacity:1"
       d="m 67.324193,241.83153 c 0.08996,-1.40877 1.941105,-4.61542 0.873881,-5.45694 -1.183257,-0.0879 -2.902054,-0.62921 -4.369404,-1.04865 1.799937,0.14264 4.093251,0.85489 5.107356,0.36897 0.173323,0.0259 0.248842,0.25766 0.231616,0.45451 -0.279642,3.1963 -1.352832,4.49614 -1.843433,5.68213 z"
       id="path4576-9"
       inkscape:connector-curvature="0"
       sodipodi:nodetypes="ccccscc" />
    <path
       style="display:inline;fill:#ffffff;fill-opacity:0.998748;stroke:none;stroke-width:0.8699978px;stroke-linecap:butt;stroke-linejoin:miter;stroke-opacity:1"
       d="m 72.819945,241.48198 c 0.04323,-0.009 2.405189,-2.24888 2.9938,-3.94561 0.126937,-0.36569 -0.04205,-0.61802 -0.04205,-0.61802 -1.637332,-0.70091 -2.236542,-0.53676 -3.320747,-0.77678 0.729656,0.31556 1.69342,0.55322 2.000217,1.00985 0.836572,1.18073 -1.140209,3.36144 -1.631245,4.33056 z"
       id="path4578-8"
       inkscape:connector-curvature="0"
       sodipodi:nodetypes="cscccc" />
    <path
       style="display:inline;fill:#ffffff;fill-opacity:0.998748;stroke:none;stroke-width:0.8699978px;stroke-linecap:butt;stroke-linejoin:miter;stroke-opacity:1"
       d="m 78.548723,238.45253 c 0.529852,0.0259 0.935588,-0.13113 1.650659,0.17456 0.197252,0.3361 0.120348,0.60412 -0.09566,0.83712 -1.406382,1.39683 -3.113572,2.56716 -4.623295,3.08563 1.61871,-1.01188 3.362185,-2.01684 3.553788,-3.10715 0.02101,-0.65928 -0.26049,-0.77398 -0.485492,-0.99036 z"
       id="path4580-0"
       inkscape:connector-curvature="0"
       sodipodi:nodetypes="cccccc" />
    <path
       style="display:inline;fill:#ffffff;fill-opacity:0.998748;stroke:none;stroke-width:0.8699978px;stroke-linecap:butt;stroke-linejoin:miter;stroke-opacity:1"
       d="m 61.699587,241.67325 c 0.401348,-1.33527 -0.09171,-4.8022 -2.452967,-4.93006 -2.466758,-0.28801 -2.968282,-0.69525 -4.098508,-1.16481 1.241864,0.23209 3.375925,0.44252 4.870005,0.17915 0.612451,0.0328 0.652917,0.34598 0.815626,0.48119 1.281298,2.10613 1.841398,3.94838 0.865844,5.43455 z"
       id="path4582-0"
       inkscape:connector-curvature="0"
       sodipodi:nodetypes="cccccc" />
    <path
       style="display:inline;fill:#ffffff;fill-opacity:0.998748;stroke:none;stroke-width:0.8699978px;stroke-linecap:butt;stroke-linejoin:miter;stroke-opacity:1"
       d="m 82.853767,235.35039 c -1.305553,1.8885 -0.349084,2.73114 -1.974697,2.53895 -1.164058,-0.13258 -1.762567,-0.0834 -2.23325,-0.0201 1.179076,0.0894 2.733408,0.17429 2.779985,0.87859 1.220835,-0.37759 1.274805,-2.38976 1.427962,-3.39814 z"
       id="path4584-6"
       inkscape:connector-curvature="0"
       sodipodi:nodetypes="ccccc" />
    <path
       style="display:inline;fill:#ffffff;fill-opacity:0.998748;stroke:none;stroke-width:0.8699978px;stroke-linecap:butt;stroke-linejoin:miter;stroke-opacity:1"
       d="m 62.60524,228.35434 c 0.270266,-0.44072 -0.124604,-6.19103 -0.195008,-6.1066 -0.0256,2.05429 -0.0442,4.13257 -0.426428,4.90255 z"
       id="path4586-4"
       inkscape:connector-curvature="0"
       sodipodi:nodetypes="cccc" />
    <path
       style="display:inline;fill:#ffffff;fill-opacity:0.998748;stroke:none;stroke-width:0.8699978px;stroke-linecap:butt;stroke-linejoin:miter;stroke-opacity:1"
       d="m 68.944676,222.97232 c -0.228654,-2.26749 -2.621763,-2.79443 -5.631158,-2.59019 1.236947,-0.55416 4.112177,-0.97734 5.8275,0.94006 0.182066,0.58023 0.20697,1.19984 -0.02474,1.88356 -0.05719,-0.0586 -0.114479,-0.0737 -0.171656,-0.23351 z"
       id="path4653-9"
       inkscape:connector-curvature="0"
       sodipodi:nodetypes="ccccc" />
    <path
       style="display:inline;fill:#ffffff;fill-opacity:0.998748;stroke:none;stroke-width:0.8699978px;stroke-linecap:butt;stroke-linejoin:miter;stroke-opacity:1"
       d="m 69.516552,223.27523 c 0.275502,-0.91229 0.07995,-1.62615 0.252495,-1.77946 1.75327,-0.53796 3.71143,0.14581 4.481818,1.05597 -2.588883,-1.09881 -4.440697,0.14695 -4.528301,0.6136 -0.07894,0.098 -0.145286,0.1211 -0.205965,0.10963 z"
       id="path4655-5"
       inkscape:connector-curvature="0"
       sodipodi:nodetypes="ccccc" />
    <path
       style="display:inline;fill:#ffffff;fill-opacity:0.998748;stroke:none;stroke-width:0.8699978px;stroke-linecap:butt;stroke-linejoin:miter;stroke-opacity:1"
       d="m 76.164663,223.08298 c 2.328082,0.78745 4.407533,2.2914 5.85833,4.90653 -0.793247,-1.53961 -1.879507,-3.09827 -3.586911,-4.56756 -0.980432,-0.75616 -1.485815,-0.26716 -2.271419,-0.33897 z"
       id="path4657-3"
       inkscape:connector-curvature="0"
       sodipodi:nodetypes="cccc" />
    <path
       style="display:inline;fill:#ffffff;fill-opacity:0.998748;stroke:none;stroke-width:0.8699978px;stroke-linecap:butt;stroke-linejoin:miter;stroke-opacity:1"
       d="m 53.680834,242.4955 c -0.789885,-0.81342 -0.592109,-2.03386 -2.164187,-2.58655 -0.67915,-1.23263 -0.233544,-2.71135 0.233054,-4.19461 -0.30019,0.68194 -0.639468,1.07521 -1.007312,2.36623 -0.09476,1.00343 0.05974,1.97942 0.329976,2.34317 1.310743,0.43698 1.655708,1.27679 2.608492,2.07176 z"
       id="path4659-3"
       inkscape:connector-curvature="0"
       sodipodi:nodetypes="ccccccc" />
  </g>
  <g
     inkscape:groupmode="layer"
     id="layer2"
     inkscape:label="shadow"
     style="display:inline" />
</svg>
