<?xml version="1.0" encoding="UTF-8" standalone="no"?>
<!-- Created with Inkscape (http://www.inkscape.org/) -->

<svg
   xmlns:dc="http://purl.org/dc/elements/1.1/"
   xmlns:cc="http://creativecommons.org/ns#"
   xmlns:rdf="http://www.w3.org/1999/02/22-rdf-syntax-ns#"
   xmlns:svg="http://www.w3.org/2000/svg"
   xmlns="http://www.w3.org/2000/svg"
   xmlns:sodipodi="http://sodipodi.sourceforge.net/DTD/sodipodi-0.dtd"
   xmlns:inkscape="http://www.inkscape.org/namespaces/inkscape"
   width="200"
   height="200"
   viewBox="0 0 52.916664 52.916668"
   version="1.1"
   id="svg8"
   sodipodi:docname="icon.svg"
   inkscape:version="0.92.1 r15371">
  <defs
     id="defs2" />
  <sodipodi:namedview
     id="base"
     pagecolor="#ffffff"
     bordercolor="#666666"
     borderopacity="1.0"
     inkscape:pageopacity="0.0"
     inkscape:pageshadow="2"
     inkscape:zoom="1.4"
     inkscape:cx="-9.8577229"
     inkscape:cy="63.076055"
     inkscape:document-units="px"
     inkscape:current-layer="layer1"
     showgrid="false"
     units="px"
     showguides="true"
     inkscape:guide-bbox="true"
     inkscape:window-width="1858"
     inkscape:window-height="1057"
     inkscape:window-x="1358"
     inkscape:window-y="-8"
     inkscape:window-maximized="1">
    <sodipodi:guide
       position="0,0"
       orientation="1,0"
       id="guide4485"
       inkscape:locked="false"
       inkscape:label=""
       inkscape:color="rgb(0,0,255)" />
    <sodipodi:guide
       position="0,0"
       orientation="0,1"
       id="guide4487"
       inkscape:locked="false" />
    <sodipodi:guide
       position="132.29166,132.29166"
       orientation="1,0"
       id="guide4489"
       inkscape:locked="false"
       inkscape:label=""
       inkscape:color="rgb(0,0,255)" />
    <sodipodi:guide
       position="132.29166,132.29166"
       orientation="0,1"
       id="guide4491"
       inkscape:locked="false" />
    <sodipodi:guide
       position="36.682742,36.682742"
       orientation="-0.70710678,0.70710678"
       id="guide4493"
       inkscape:locked="false"
       inkscape:label=""
       inkscape:color="rgb(0,0,255)" />
    <sodipodi:guide
       position="0,132.29166"
       orientation="0.70710678,0.70710678"
       id="guide4497"
       inkscape:locked="false"
       inkscape:label=""
       inkscape:color="rgb(0,0,255)" />
    <sodipodi:guide
       position="66.145828,66.145833"
       orientation="1,0"
       id="guide4499"
       inkscape:locked="false" />
    <sodipodi:guide
       position="89.627603,66.145833"
       orientation="0,1"
       id="guide4501"
       inkscape:locked="false" />
  </sodipodi:namedview>
  <metadata
     id="metadata5">
    <rdf:RDF>
      <cc:Work
         rdf:about="">
        <dc:format>image/svg+xml</dc:format>
        <dc:type
           rdf:resource="http://purl.org/dc/dcmitype/StillImage" />
        <dc:title></dc:title>
      </cc:Work>
    </rdf:RDF>
  </metadata>
  <g
     inkscape:groupmode="layer"
     id="layer3"
     inkscape:label="bg"
     transform="translate(0,-79.374999)">
    <path
       style="display:inline;fill:#000006;fill-opacity:1;stroke:#000006;stroke-width:0.33355984px;stroke-linecap:butt;stroke-linejoin:miter;stroke-opacity:1"
       d="m 13.678637,117.41146 c 0.468384,0.2872 1.197187,0.1857 1.197187,0.1857 1.132774,0.16264 1.909004,1.0714 3.413062,0.45807 0.748333,-0.32467 0.678849,-2.29623 -0.442903,-2.90166 -1.253443,-0.83808 -0.956047,-0.59376 -1.882131,-1.50717 -2.49041,-2.31732 -3.768261,-4.87233 -3.768261,-4.87233 -0.588354,-1.09763 -0.68505,-3.42126 -0.765723,-4.1694 -0.848044,2.64983 -0.298693,3.78553 -0.145678,4.86358 -0.264251,0.6944 -0.563831,1.28036 -1.034909,2.83011 -0.0057,0.009 -0.2611947,2.36659 0.816567,2.66803 0.959567,0.2203 1.16027,1.52074 2.61278,2.44475 z"
       id="path4682-2-9"
       inkscape:connector-curvature="0"
       sodipodi:nodetypes="cccccccccccc" />
    <path
       style="display:inline;fill:#000006;fill-opacity:1;stroke:#000006;stroke-width:0.33355984px;stroke-linecap:butt;stroke-linejoin:miter;stroke-opacity:1"
       d="m 38.647524,115.65283 c 1.214209,-0.83523 1.648334,-1.2207 2.808194,-2.56174 0.585747,-0.4687 1.119115,-0.6822 1.178692,-2.60899 0.667883,-1.02685 0.636893,-2.36498 0.884479,-4.02226 -0.727657,-4.87785 -2.095159,-6.24115 -3.96965,-8.366206 -0.289784,-0.328779 -0.621468,-0.600813 -1.069026,-0.951753 -1.328837,-0.669605 -1.841293,-0.268745 -2.746653,-0.230387 -0.378916,0.01734 -0.638319,-0.244237 -0.638319,-0.244237 -0.612821,-0.730073 -1.106574,-1.316205 -2.695567,-1.516268 -1.925865,-0.04785 -2.30173,0.44317 -3.369469,-0.337011 -1.283137,-1.149558 -2.778494,-1.445843 -4.969954,-1.179347 -0.687129,0.117017 -1.291638,0.730054 -1.937436,1.095091 -1.873033,-0.07302 -3.258037,-1.121422 -5.643863,-0.168392 -2.651598,2.956287 -3.17661,5.73545 -4.633016,8.59213 -0.644368,1.2451 -0.310806,3.57202 0.298701,5.53161 2.049286,2.68058 2.053139,4.29717 7.783753,7.53573 0.83362,0.20646 1.791465,0.67659 2.437334,-0.37698 0.212436,-0.27681 0.847328,-1.47165 -0.455642,-4.7883 -1.285358,-2.90794 -1.05391,-3.44653 -0.775824,-5.2898 0.287519,-1.90593 0.370586,-2.95531 0.106665,-5.10955 -0.453929,-2.284904 -0.179904,-1.312794 -1.204674,-2.556968 1.370936,1.136768 1.183336,1.213187 1.681318,1.984098 1.084016,4.82263 -0.154305,6.94684 0.192534,11.12115 l 1.307775,4.33183 0.713015,1.19948 c 0.843039,0.78594 3.531432,0.57282 3.898936,0.0849 0.624906,-0.68177 1.064143,-2.1457 1.824491,-4.53943 0.531874,-1.187 0.771286,-1.52475 1.26068,-2.39954 -0.568092,-2.53822 -0.459704,-4.14836 0.242166,-8.03407 -1.15039,4.09792 -0.870837,4.3649 -0.242166,8.03407 l -1.26068,2.39954 c -0.283951,0.58262 -0.829595,1.76561 -0.804313,4.66426 0.9711,1.58755 4.022827,0.37577 4.570719,-0.34192 1.173433,-1.43364 2.250207,-2.68542 3.63451,-5.06804 0.328936,-3.3947 -0.304587,-3.24021 0.440741,-9.18239 -0.09718,2.17557 -0.16834,6.34098 0.299933,9.25879 -0.284033,1.05977 -3.929339,4.14704 -4.158488,4.8536 0.132501,0.47705 0.347027,0.85991 1.016443,0.9191 1.666047,-0.12947 3.199533,-1.30671 3.993661,-1.73195 z"
       id="path4684-9-4"
       inkscape:connector-curvature="0"
       sodipodi:nodetypes="ccccscscccccccccccsccccccccccccccccccccc" />
  </g>
  <g
     inkscape:label="main"
     inkscape:groupmode="layer"
     id="layer1"
     transform="translate(0,-244.08331)"
     style="display:inline">
    <path
       style="fill:#ffffff;fill-opacity:1;stroke:#000006;stroke-width:0.30579048px;stroke-linecap:butt;stroke-linejoin:miter;stroke-opacity:1"
       d="m 14.487992,281.28626 c 0.42939,0.26329 1.09752,0.17024 1.09752,0.17024 1.038469,0.1491 1.750075,0.9822 3.128918,0.41993 0.686034,-0.29764 0.622335,-2.10506 -0.40603,-2.66009 -1.149092,-0.76831 -0.876454,-0.54433 -1.725441,-1.38169 -2.283079,-2.12441 -3.454547,-4.46671 -3.454547,-4.46671 -0.539373,-1.00625 -0.628019,-3.13643 -0.701976,-3.82229 -0.777443,2.42923 -0.273826,3.47038 -0.13355,4.45868 -0.242251,0.63659 -0.516891,1.17377 -0.948751,2.59451 -0.0053,0.008 -0.23945,2.16956 0.748587,2.4459 0.879681,0.20197 1.063675,1.39414 2.395262,2.24123 z"
       id="path4682-2"
       inkscape:connector-curvature="0"
       sodipodi:nodetypes="cccccccccccc" />
    <path
       style="fill:#ffffff;fill-opacity:1;stroke:#000006;stroke-width:0.30579048px;stroke-linecap:butt;stroke-linejoin:miter;stroke-opacity:1"
       d="m 37.378179,279.67403 c 1.113124,-0.76569 1.511112,-1.11907 2.574412,-2.34847 0.53698,-0.42968 1.025947,-0.6254 1.080567,-2.39179 0.612271,-0.94135 0.58387,-2.16808 0.810844,-3.68739 -0.667082,-4.47176 -1.920735,-5.72156 -3.639169,-7.6697 -0.265668,-0.30141 -0.569734,-0.5508 -0.980032,-0.87252 -1.218209,-0.61386 -1.688001,-0.24637 -2.517992,-0.21121 -0.34737,0.0159 -0.585178,-0.2239 -0.585178,-0.2239 -0.561799,-0.66929 -1.01445,-1.20663 -2.47116,-1.39004 -1.765534,-0.0439 -2.110104,0.40628 -3.088955,-0.30895 -1.176309,-1.05386 -2.547176,-1.32548 -4.556198,-1.08117 -0.629919,0.10728 -1.1841,0.66928 -1.776143,1.00393 -1.717096,-0.0669 -2.986796,-1.02807 -5.173998,-0.15438 -2.430849,2.71018 -2.912152,5.25797 -4.247311,7.87682 -0.590723,1.14144 -0.284931,3.27464 0.273833,5.0711 1.87868,2.45741 1.882213,3.93941 7.135744,6.90836 0.764224,0.18928 1.642327,0.62026 2.234424,-0.34559 0.194747,-0.25377 0.77679,-1.34913 -0.417707,-4.38967 -1.178348,-2.66585 -0.966174,-3.15961 -0.711242,-4.84942 0.263584,-1.74726 0.339734,-2.70928 0.09779,-4.68417 -0.416141,-2.09467 -0.164928,-1.20349 -1.104385,-2.34409 1.256802,1.04213 1.084821,1.11219 1.541342,1.81892 0.993772,4.42113 -0.141455,6.3685 0.176507,10.19529 l 1.198904,3.9712 0.653653,1.09962 c 0.77286,0.72051 3.237438,0.52513 3.574348,0.0778 0.572881,-0.62501 0.975546,-1.96707 1.672593,-4.16152 0.487595,-1.08818 0.707078,-1.39781 1.155729,-2.19977 -0.520796,-2.32691 -0.421431,-3.80301 0.222003,-7.36522 -1.054616,3.75675 -0.798333,4.00151 -0.222003,7.36522 l -1.155729,2.19977 c -0.260307,0.53412 -0.760524,1.61862 -0.737346,4.27595 0.890249,1.45539 3.687917,0.34449 4.190198,-0.31345 1.075737,-1.31429 2.062871,-2.46186 3.331931,-4.64612 0.301551,-3.11209 -0.279232,-2.97045 0.404051,-8.41794 -0.08909,1.99445 -0.154328,5.81308 0.274962,8.48798 -0.260386,0.97154 -3.602216,3.80179 -3.81229,4.44953 0.121469,0.43734 0.318134,0.78832 0.931821,0.84259 1.527348,-0.11869 2.933173,-1.19793 3.661182,-1.58777 z"
       id="path4684-9"
       inkscape:connector-curvature="0"
       sodipodi:nodetypes="ccccscscccccccccccsccccccccccccccccccccc" />
    <path
       style="fill:#000006;fill-opacity:1;stroke:none;stroke-width:0.30579048px;stroke-linecap:butt;stroke-linejoin:miter;stroke-opacity:1"
       d="m 20.217452,273.57271 -1.019314,0.18346 c -2.274177,0.0533 -3.595134,-0.4345 -4.942323,-0.90742 0.472511,0.34332 0.521911,0.62961 1.583083,1.05222 2.397779,0.5088 3.324877,0.56941 4.378549,0.24136 0.06228,-0.0468 0.777132,-0.0492 0.776139,0.0769 0.277643,-0.18241 1.604694,3.50455 1.563783,3.55229 -0.218909,-1.48547 -1.122929,-3.81691 -1.467252,-5.46358 -0.219358,0.65866 0.05472,0.92386 -0.872665,1.26453 z"
       id="path4536-0"
       inkscape:connector-curvature="0"
       sodipodi:nodetypes="ccccccccc" />
    <path
       style="fill:#000006;fill-opacity:1;stroke:none;stroke-width:0.30579048px;stroke-linecap:butt;stroke-linejoin:miter;stroke-opacity:1"
       d="m 30.627252,265.34837 c -0.435867,1.33 -1.395436,6.18555 -1.100438,8.65877 -0.401727,2.18198 -1.18534,2.79823 -1.130496,6.85216 l 0.905377,0.58815 c -1.002311,-1.92965 -0.168049,-4.86413 1.148095,-7.04683 -0.628603,-3.94808 -0.08879,-5.51203 0.08573,-6.63901 0.125858,-0.69216 0.365913,-0.87274 0.86394,-0.74323 -0.21883,-0.14301 -0.481656,-0.18849 -0.60782,-0.30556 -0.178199,-0.16549 -0.166832,-0.22206 -0.164399,-1.36445 z"
       id="path4538-6"
       inkscape:connector-curvature="0"
       sodipodi:nodetypes="cccccccsc" />
    <path
       style="fill:#000006;fill-opacity:1;stroke:none;stroke-width:0.30579048px;stroke-linecap:butt;stroke-linejoin:miter;stroke-opacity:1"
       d="m 36.571783,266.29762 c -0.920823,1.23881 -0.435561,6.40132 -0.653339,9.60204 l -3.133267,4.51955 c 0.07026,0.52128 0.425719,0.75724 0.931822,0.8426 -1.753354,-0.91125 3.016292,-3.41042 3.034913,-5.29213 -0.335243,-1.35983 -0.823904,-7.68607 0.09287,-7.92469 0.143384,-0.26853 0,0 0.491452,-0.24585 -0.950845,-0.37506 -0.764134,-0.72535 -0.764476,-1.50167 z"
       id="path4540-7"
       inkscape:connector-curvature="0"
       sodipodi:nodetypes="ccccccccc" />
    <path
       style="fill:#000006;fill-opacity:1;stroke:#000006;stroke-width:0.30579048px;stroke-linecap:butt;stroke-linejoin:miter;stroke-opacity:1"
       d="m 18.579289,281.8875 c 0.664613,-0.43264 -0.09556,-0.9556 -0.09556,-0.9556 -0.753589,-0.5433 -1.491825,-0.53294 -2.197871,-0.64163 -0.883218,0.38711 -0.895231,0.72836 -0.736139,1.17657 0.338449,0.002 2.065519,0.85518 3.029571,0.42074 z"
       id="path4542-3"
       inkscape:connector-curvature="0"
       sodipodi:nodetypes="cccccc" />
    <path
       style="fill:#000006;fill-opacity:1;stroke:none;stroke-width:0.79972756px;stroke-linecap:butt;stroke-linejoin:miter;stroke-opacity:1"
       d="m 19.17291,262.78624 c 3.766994,2.90401 1.814158,6.84921 1.890513,10.37569 l 1.059995,2.61245 c -0.170718,-2.20487 0.02353,-3.44532 0.214521,-4.77065 0.305101,-2.11329 1.52441,-6.08245 -3.16504,-8.21749 z"
       id="path4574-1"
       inkscape:connector-curvature="0"
       sodipodi:nodetypes="cccscc" />
    <path
       style="fill:#000006;fill-opacity:1;stroke:none;stroke-width:0.79972756px;stroke-linecap:butt;stroke-linejoin:miter;stroke-opacity:1"
       d="m 26.989975,280.15957 c 0.08269,-1.29498 1.784321,-4.24263 0.803297,-5.01618 -1.087685,-0.0808 -2.667654,-0.57839 -4.016485,-0.96395 1.654555,0.13112 3.762637,0.78584 4.694832,0.33917 0.159324,0.0238 0.228743,0.23685 0.212908,0.4178 -0.257055,2.93813 -1.243563,4.13298 -1.694538,5.22318 z"
       id="path4576-9"
       inkscape:connector-curvature="0"
       sodipodi:nodetypes="ccccscc" />
    <path
       style="fill:#000006;fill-opacity:1;stroke:none;stroke-width:0.79972756px;stroke-linecap:butt;stroke-linejoin:miter;stroke-opacity:1"
       d="m 32.041832,279.83825 c 0.03974,-0.008 2.21092,-2.06723 2.751989,-3.62692 0.116684,-0.33615 -0.03865,-0.5681 -0.03865,-0.5681 -1.505084,-0.6443 -2.055895,-0.49341 -3.052529,-0.71404 0.670722,0.29007 1.556642,0.50854 1.838659,0.92828 0.769001,1.08537 -1.048114,3.08994 -1.499489,3.98078 z"
       id="path4578-8"
       inkscape:connector-curvature="0"
       sodipodi:nodetypes="cscccc" />
    <path
       style="fill:#000006;fill-opacity:1;stroke:none;stroke-width:0.79972756px;stroke-linecap:butt;stroke-linejoin:miter;stroke-opacity:1"
       d="m 37.307893,277.05349 c 0.487055,0.0238 0.860019,-0.12054 1.517335,0.16046 0.181319,0.30896 0.110627,0.55533 -0.08793,0.76951 -1.292787,1.28401 -2.862087,2.35981 -4.249869,2.8364 1.487966,-0.93015 3.090619,-1.85394 3.266745,-2.85618 0.0193,-0.60603 -0.239449,-0.71147 -0.446277,-0.91037 z"
       id="path4580-0"
       inkscape:connector-curvature="0"
       sodipodi:nodetypes="cccccc" />
    <path
       style="fill:#000006;fill-opacity:1;stroke:none;stroke-width:0.79972756px;stroke-linecap:butt;stroke-linejoin:miter;stroke-opacity:1"
       d="m 21.819671,280.01407 c 0.368931,-1.22742 -0.0843,-4.41432 -2.254839,-4.53185 -2.267517,-0.26475 -2.728532,-0.6391 -3.767469,-1.07073 1.141558,0.21334 3.103249,0.40678 4.476652,0.16468 0.562983,0.0301 0.60018,0.31803 0.749747,0.44232 1.177807,1.93602 1.692667,3.62947 0.795909,4.9956 z"
       id="path4582-0"
       inkscape:connector-curvature="0"
       sodipodi:nodetypes="cccccc" />
    <path
       style="fill:#000006;fill-opacity:1;stroke:none;stroke-width:0.79972756px;stroke-linecap:butt;stroke-linejoin:miter;stroke-opacity:1"
       d="m 41.265216,274.20191 c -1.200102,1.73597 -0.320888,2.51055 -1.815199,2.33388 -1.070038,-0.12187 -1.620203,-0.0767 -2.052869,-0.0185 1.08384,0.0822 2.512628,0.16021 2.555443,0.80762 1.122229,-0.34709 1.171839,-2.19673 1.312625,-3.12367 z"
       id="path4584-6"
       inkscape:connector-curvature="0"
       sodipodi:nodetypes="ccccc" />
    <path
       style="fill:#000006;fill-opacity:1;stroke:none;stroke-width:0.79972756px;stroke-linecap:butt;stroke-linejoin:miter;stroke-opacity:1"
       d="m 22.652174,267.77094 c 0.248437,-0.40512 -0.114539,-5.69098 -0.179257,-5.61337 -0.02353,1.88837 -0.04063,3.79878 -0.391985,4.50657 z"
       id="path4586-4"
       inkscape:connector-curvature="0"
       sodipodi:nodetypes="cccc" />
    <path
       style="fill:#000006;fill-opacity:1;stroke:none;stroke-width:0.79972756px;stroke-linecap:butt;stroke-linejoin:miter;stroke-opacity:1"
       d="m 28.47957,262.82363 c -0.210185,-2.08435 -2.410001,-2.56872 -5.176326,-2.38098 1.137038,-0.5094 3.780034,-0.8984 5.35681,0.86413 0.16736,0.53336 0.190253,1.10293 -0.02274,1.73142 -0.05257,-0.0539 -0.105233,-0.0677 -0.157791,-0.21465 z"
       id="path4653-9"
       inkscape:connector-curvature="0"
       sodipodi:nodetypes="ccccc" />
    <path
       style="fill:#000006;fill-opacity:1;stroke:none;stroke-width:0.79972756px;stroke-linecap:butt;stroke-linejoin:miter;stroke-opacity:1"
       d="m 29.005256,263.10207 c 0.253249,-0.8386 0.07349,-1.4948 0.2321,-1.63573 1.611658,-0.49451 3.411656,0.13403 4.119819,0.97068 -2.379777,-1.01006 -4.082019,0.13508 -4.162547,0.56404 -0.07256,0.0901 -0.133551,0.11132 -0.189329,0.10077 z"
       id="path4655-5"
       inkscape:connector-curvature="0"
       sodipodi:nodetypes="ccccc" />
    <path
       style="fill:#000006;fill-opacity:1;stroke:none;stroke-width:0.79972756px;stroke-linecap:butt;stroke-linejoin:miter;stroke-opacity:1"
       d="m 35.116395,262.92535 c 2.140042,0.72385 4.051533,2.10632 5.38515,4.51023 -0.729178,-1.41526 -1.727699,-2.84802 -3.297194,-4.19864 -0.901242,-0.69508 -1.365805,-0.24558 -2.087956,-0.31159 z"
       id="path4657-3"
       inkscape:connector-curvature="0"
       sodipodi:nodetypes="cccc" />
    <path
       style="fill:#000006;fill-opacity:1;stroke:none;stroke-width:0.79972756px;stroke-linecap:butt;stroke-linejoin:miter;stroke-opacity:1"
       d="m 14.448598,280.76991 c -0.726086,-0.74772 -0.544284,-1.86958 -1.989385,-2.37763 -0.624294,-1.13307 -0.21468,-2.49236 0.21423,-3.85581 -0.275943,0.62686 -0.587817,0.98836 -0.92595,2.17511 -0.08711,0.92238 0.05491,1.81954 0.303323,2.15391 1.204874,0.40168 1.521976,1.17366 2.397803,1.90442 z"
       id="path4659-3"
       inkscape:connector-curvature="0"
       sodipodi:nodetypes="ccccccc" />
  </g>
  <g
     inkscape:groupmode="layer"
     id="layer2"
     inkscape:label="shadow"
     style="display:inline"
     transform="translate(0,-79.374999)" />
</svg>
